<?xml version="1.0" encoding="utf-8"?>
<!-- Generator: Adobe Illustrator 27.2.0, SVG Export Plug-In . SVG Version: 6.00 Build 0)  -->
<svg version="1.1" id="Layer_1" xmlns="http://www.w3.org/2000/svg" xmlns:xlink="http://www.w3.org/1999/xlink" x="0px" y="0px"
	 viewBox="0 0 434.1 275" style="enable-background:new 0 0 434.1 275;" xml:space="preserve">
<style type="text/css">
	.st0{fill-rule:evenodd;clip-rule:evenodd;fill:#231F1F;}
</style>
<path class="st0" d="M304.8,47.6V8.7h-83.9v38.9C204.3,19.6,165.1,3,131.8,3C53.6,3,3,58.9,3,137.3s50.6,134.3,128.8,134.3
	c33.3,0,66.8-17,89.1-45v39.3h83.9v-39.3h-44.6v-179H304.8z M137.3,232.3c-46.3,0-83.7-42.5-83.7-95.2c0-52.6,37.5-95.2,83.7-95.2
	s83.6,42.5,83.6,95.2C220.9,189.7,183.6,232.3,137.3,232.3z"/>
<circle class="st0" cx="390.7" cy="232.3" r="39.8"/>
</svg>
