<?xml version="1.0" encoding="utf-8"?>
<!-- Generator: Adobe Illustrator 27.2.0, SVG Export Plug-In . SVG Version: 6.00 Build 0)  -->
<svg version="1.1" id="Layer_1" xmlns="http://www.w3.org/2000/svg" xmlns:xlink="http://www.w3.org/1999/xlink" x="0px" y="0px"
	 viewBox="0 0 434.1 275" style="enable-background:new 0 0 434.1 275;" xml:space="preserve">
<style type="text/css">
	.st0{fill:#231F1F;}
	.st1{fill-rule:evenodd;clip-rule:evenodd;fill:#231F1F;}
</style>
<g>
	<path class="st0" d="M295.8,57.4V22.7h-74.9v34.7c-14.8-25-49.8-39.8-79.5-39.8c-69.8,0-114.9,49.9-114.9,119.8
		s45.2,119.8,114.9,119.8c29.7,0,59.6-15.2,79.5-40.2v35.1h74.9v-35.1H256V57.4H295.8z M146.3,222.2c-41.3,0-74.7-37.9-74.7-85
		c0-46.9,33.5-85,74.7-85c41.2,0,74.6,37.9,74.6,85C220.9,184.2,187.6,222.2,146.3,222.2z"/>
	<circle class="st1" cx="372.4" cy="221.6" r="35.5"/>
</g>
</svg>
