<svg version="1.2" xmlns="http://www.w3.org/2000/svg" viewBox="0 0 1554 275" width="1554" height="275">
	<title>ASRNL</title>
	<style>
		.s0 { fill: #231f1f } 
	</style>
	<g id="g187">
		<path id="Layer" fill-rule="evenodd" class="s0" d="m1485.2 240.2c0-17.3 17.1-34.4 34.1-34.4 17.3 0 34.3 11.6 34.3 34.4 0 17.1-17 34.1-34.3 34.1-22.8 0-34.1-17-34.1-34.1zm-428.2-4.7c0 17-17 34-34.4 34-17 0-34.4-11.2-34.4-34 0-17.4 17.4-34.4 34.4-34.4 22.8 0 40.1 17 34.4 34.4zm239.8-92v91.6h51.4v39.9h-142.9v-39.9h45.9v-188.7h-45.9v-40.2h91.5v51.4c22.8-39.9 57.1-56.9 102.7-56.9v45.7c-79.9 5.8-102.7 28.6-102.7 97.1zm-827.7 125.7c-17 0-34.3-11.6-34.3-34.4 0-17 17.3-34.4 34.3-34.4 17.4 0 34.4 11.6 34.4 34.4 0 22.8-17 40.2-34.4 34.4zm-468.4-131.5c0-80.1 51.7-137.3 131.7-137.3 34 0 74.1 17 91.1 45.6v-39.8h85.8v39.8h-45.6v183h45.6v40.2h-85.8v-40.2c-22.8 28.6-57.1 46-91.1 46-80 0-131.7-57.2-131.7-137.3zm222.8-0.2c0-53.8-38.2-97.3-85.5-97.3-47.3 0-85.6 43.5-85.6 97.3 0 53.8 38.3 97.3 85.6 97.3 47.3 0 85.5-43.5 85.5-97.3zm542.6 137.5c-34 0-68.4-11.6-91.2-34.4v28.6h-40.1v-85.9h40.1c11.3 34.5 57.2 51.5 85.4 51.5 23.2 0 63-5.8 63-39.9 0-63-188.5 5.5-188.5-120.3 0-51.4 51.4-74.2 97.3-74.2 28.2 0 56.8 11.2 79.9 28.6v-22.8h39.8v80h-39.8c-5.7-17.3-17.3-28.6-28.5-34.4-11.6-5.8-23.2-11.6-40.2-11.6-34.3 0-62.9 5.8-62.9 34.4 0 68.9 188.4 5.8 188.4 120.3 0 57.3-51.3 80.1-102.7 80.1z"/>
	</g>
</svg>