<svg version="1.2" xmlns="http://www.w3.org/2000/svg" viewBox="0 0 1595 1107" width="1595" height="1107">
	<title>asrlogo-svg</title>
	<style>
		.s0 { fill: #231f1f } 
	</style>
	<g id="Layer">
		<path id="Layer" fill-rule="evenodd" class="s0" d="m609.5 995.5h36.9v11.8h-8.4l-28.5 28.5 28.5 28.6h8.4v11.7h-36.9v-11.7h10l-28.5-28.6v28.6h10.1v11.7h-37v-11.7h13.5v-99.1h-11.8v-11.7h26.9v78.9l28.5-25.2h-11.7zm-77.3-500.3h-67.1c1.6 15.1 13.4 23.5 25.2 23.5 11.7 0 20.1-5 25.1-13.4h13.5c-5.1 13.4-21.9 23.5-40.3 23.5-21.9 0-40.3-16.8-40.3-40.3 0-21.8 18.4-40.3 40.3-40.3 23.5 0 40.3 20.1 43.6 47zm-16.8-13.4c0-11.8-13.4-21.9-26.8-21.9-13.5 0-25.2 10.1-26.9 21.9zm391.2 377.7h-67.2c1.7 15.1 13.5 23.5 25.2 23.5 11.8 0 20.2-5 25.2-13.4h13.4c-5 13.4-21.8 23.5-40.2 23.5-21.9 0-40.3-16.8-40.3-40.3 0-23.5 18.4-40.3 40.3-40.3 23.5 0 40.2 20.1 43.6 47zm-16.8-13.4c0-11.8-13.4-21.9-26.8-21.9-13.5 0-25.2 8.4-26.9 21.9zm-324 45.3c-23.6 0-38.7-16.8-38.7-40.3 0-23.5 15.1-40.3 38.7-40.3 10 0 21.8 5 26.8 13.4v-11.7h25.2v11.7h-13.4v55.4h13.4v11.8h-25.2v-11.8c-5 8.4-16.8 13.5-26.8 11.8zm26.8-38.6c0-15.8-11.2-28.6-25.2-28.6-13.9 0-25.2 12.8-25.2 28.6 0 15.8 11.3 28.5 25.2 28.5 14 0 25.2-12.7 25.2-28.5zm209.9-156.2h13.4v-41.9c0-8.4-3.3-13.5-10.1-13.5-11.7 0-18.4 6.8-26.8 13.5v43.6h13.4v11.8h-40.3v-11.8h13.4v-99h-13.4v-11.8h26.9v57.1c5-6.7 16.8-13.4 26.8-13.4 11.8 0 23.5 6.7 23.5 21.8v45.3h11.8v11.8h-38.6zm65.5 297.1v13.5c-23.5 1.6-28.6 8.3-28.6 28.5v26.9h15.1v11.7h-41.9v-11.7h13.4v-55.4h-13.4v-11.8h26.8v15.1c5.1-11.7 16.8-16.8 28.6-16.8zm-337.5 47h-67.2c1.7 15.1 13.5 23.5 25.2 23.5 11.8 0 20.2-5 25.2-13.4h13.4c-5 13.4-21.8 23.5-40.3 23.5-21.8 0-40.3-16.8-40.3-40.3 0-23.5 18.5-40.3 40.3-40.3 23.5 0 40.3 20.2 43.7 47zm-16.8-13.4c0-11.8-13.4-21.8-26.9-21.8-13.4 0-25.1 10-26.8 21.8zm256.9 13.4h-67.2c1.7 15.1 13.4 23.5 25.2 23.5 11.7 0 20.1-5 25.2-13.4h13.4c-5 13.4-21.8 23.5-40.3 23.5-21.8 0-40.3-16.8-40.3-40.3 0-23.5 18.5-40.3 40.3-40.3 25.2 0 40.3 20.2 43.7 47zm-15.2-13.4c0-11.8-13.4-21.8-26.8-21.8-13.4 0-25.2 10-26.9 21.8zm15.1-146.1h13.5v11.8h-40.3v-11.8h13.4v-99h-13.4v-11.8h26.8zm-95.7-171.2c-25.2 0-38.6-16.8-38.6-40.3 0-23.5 13.4-40.3 38.6-40.3 8.4 0 16.8 3.4 21.9 10.1v-8.4h11.7v26.9h-10.1c-1.6-10.1-11.7-16.8-21.8-16.8-13.4 0-23.5 11.7-23.5 28.5 0 16.8 8.4 28.6 23.5 28.6 11.8 0 20.2-6.8 26.9-13.5l8.4 8.4c-8.4 11.8-20.2 18.5-37 16.8zm-381.1 283.7v13.5c-23.5 1.6-28.5 8.3-28.5 28.5v26.9h15.1v11.7h-42v-11.7h13.4v-55.4h-11.7v-11.8h26.8v15.1c5.1-11.7 16.8-16.8 26.9-16.8zm-83.9-283.7c-23.5 0-38.7-18.5-38.7-40.3 0-23.5 15.2-40.3 38.7-40.3 10 0 21.8 5.1 26.8 13.5v-11.8h25.2v11.8h-13.4v55.4h13.4v11.7h-25.2v-11.7c-5 6.7-16.8 13.4-26.8 11.7zm26.8-38.6c0-15.8-11.2-28.5-25.2-28.5-13.9 0-25.1 12.7-25.1 28.5 0 15.8 11.2 28.5 25.1 28.5 14 0 25.2-12.7 25.2-28.5zm37 221.6c-23.2 0-42-18-42-40.3 0-22.3 18.8-40.3 42-40.3 23.2 0 41.9 18 41.9 40.3 0 22.3-18.7 40.3-41.9 40.3zm26.8-40.3c0-15.8-12-28.5-26.8-28.5-14.9 0-26.9 12.7-26.9 28.5 0 15.8 12 28.5 26.9 28.5 14.8 0 26.8-12.7 26.8-28.5zm-99 188h-67.2c1.7 15.1 13.4 23.5 25.2 23.5 11.7 0 20.1-5 25.2-13.4h15.1c-5 13.4-21.8 23.5-40.3 23.5-21.8 0-40.3-16.8-40.3-40.3 0-23.5 18.5-40.3 40.3-40.3 23.5 0 40.3 20.2 42 47zm-15.1-13.4c0-11.8-13.5-21.8-26.9-21.8-13.4 0-25.2 10-26.9 21.8zm267-384.4h-13.4v-11.8h13.4v-26.9h15.1v26.9h15.1v11.8h-15.1v43.6c0 11.8 1.7 11.8 6.7 11.8 1.7 0 5 0 6.7 0v11.7c-3.3 1.7-8.4 1.7-11.7 1.7-13.5 0-16.8-3.4-16.8-20.2zm-15.1-485.1c0-5.1 5-10.1 10-10.1 5.1 0 10.1 3.4 10.1 10.1 0 5-5 10-10.1 10-6.7 0-10-5-10-10zm-48.7 888.1h13.4v28.5h-67.1v-11.8l47-55.4h-31.9v13.5h-13.5v-25.2h63.8v11.7l-47 55.4h35.3zm16.8-711.8h11.7v11.8h-38.6v-11.8h13.4v-41.9c0-6.8-3.3-13.5-10-13.5-11.8 0-18.5 6.7-26.9 13.5v43.6h13.4v11.8h-40.3v-11.8h13.5v-55.4h-13.5v-11.7h26.9v11.7c5-6.7 16.8-13.4 26.9-13.4 11.7 0 23.5 6.7 23.5 21.8zm5 478.5v13.4c-23.5 1.7-28.5 8.4-28.5 28.5v26.9h15.1v11.7h-42v-11.7h13.4v-55.4h-13.4v-11.8h26.9v15.1c5-13.4 15.1-16.7 28.5-16.7zm668.2 248.4h11.8v11.8h-40.3v-11.8h13.4v-41.9c0-8.4-3.3-13.5-10.1-13.5-11.7 0-18.4 6.7-26.8 13.5v43.6h13.4v11.8h-38.6v-11.8h13.4v-55.4h-13.4v-11.8h26.9v11.8c5-6.7 16.8-13.4 26.8-13.4 11.8 0 23.5 6.7 23.5 21.8zm258.6-715.2v-11.7c-6.7 8.4-16.8 13.4-26.9 13.4-23.5 0-38.6-16.8-38.6-40.3 0-21.8 15.1-40.3 38.6-40.3 8.4 0 20.2 5.1 25.2 13.5v-43.7h-15.1v-11.7h28.5v109.1h11.8v11.7zm-3.4-38.6c0-15.8-11.2-28.5-25.1-28.5-14 0-25.2 12.7-25.2 28.5 0 15.8 11.2 28.6 25.2 28.6 13.9 0 25.1-12.8 25.1-28.6zm-73.8 221.6h-11.8v-25.2h11.8c3.3 10.1 16.8 15.1 25.1 15.1 6.8 0 18.5-1.6 18.5-11.7 0-18.5-55.4 1.7-55.4-35.3 0-15.1 15.1-21.8 28.6-21.8 8.3 0 16.7 3.4 23.5 8.4v-6.7h11.7v23.5h-11.7c-1.7-3.4-5.1-8.4-8.4-10.1-3.4-1.7-6.8-3.3-11.8-3.3-10.1 0-18.5 1.6-18.5 10 0 20.2 55.4 1.7 55.4 35.3 0 16.8-15.1 23.5-30.2 23.5-10 0-20.1-3.4-26.8-10.1zm33.5 87.3c-5 0-10-3.3-10-10.1 0-5 5-10 10-10 5.1 0 10.1 3.3 10.1 10 0 5.1-5 10.1-10.1 10.1zm-18.4 84h13.4v-55.4h-13.4v-11.8h26.8v65.5h13.5v11.7h-40.3zm62.1 340.8h-67.2c1.7 15.1 13.5 23.5 25.2 23.5 11.8 0 20.2-5 25.2-13.4h13.4c-5 13.4-21.8 23.5-40.3 23.5-21.8 0-40.3-16.8-40.3-40.3 0-23.5 18.5-40.3 40.3-40.3 23.5 0 40.3 20.2 43.7 47zm-16.8-13.4c0-11.8-13.4-21.8-26.9-21.8-13.4 0-25.1 10-26.8 21.8zm31.9-282v-13.5c11.7 0 16.8-6.7 16.8-16.8v-70.5h-13.5v-11.7h28.6v75.5c0 23.5-6.7 33.6-31.9 37zm228.3-421.4h13.4c-5 13.4-21.8 23.5-40.2 23.5-21.9 0-40.3-16.8-40.3-40.3 0-23.5 18.4-40.3 40.3-40.3 23.5 0 40.2 20.2 40.2 45.3h-67.1c1.7 15.1 13.4 23.5 25.2 23.5 11.7 0 21.8-5 28.5-11.7zm-53.7-23.5h53.7c0-11.8-13.4-21.8-26.8-21.8-13.5 0-25.2 10-26.9 21.8zm-80.6 760.5h11.8v11.7h-38.7v-11.7h13.5v-42c0-8.4-3.4-13.4-10.1-13.4-11.8 0-18.5 6.7-26.9 13.4v43.7h13.5v11.7h-40.3v-11.7h13.4v-55.4h-13.4v-11.8h26.8v11.8c5.1-6.8 16.8-13.5 26.9-13.5 11.7 0 23.5 6.7 23.5 21.8zm26.9-736.9c0 16.7-15.1 23.5-30.3 23.5-10 0-20.1-3.4-26.8-10.1v8.4h-11.8v-25.2h11.8c3.3 10.1 16.8 15.1 25.2 15.1 6.7 0 18.4-1.7 18.4-11.7 0-18.5-55.4 1.6-55.4-35.3 0-15.1 15.1-21.8 28.6-21.8 8.4 0 16.8 3.3 23.5 8.4v-6.7h11.7v23.5h-11.7c-1.7-3.4-5.1-8.4-8.4-10.1-3.4-1.7-6.7-3.4-11.8-3.4-10 0-18.4 1.7-18.4 10.1 0 20.1 53.7 1.7 55.4 35.3zm-322.4 236.7c-15.1 0-31.9-6.7-36.9-23.5h16.8c3.3 8.4 13.4 11.7 21.8 11.7 15.1 0 25.2-6.7 25.2-25.2v-8.4c0 5.1-11.8 13.5-25.2 13.5-26.9 0-38.6-20.2-38.6-40.3 0-18.5 13.4-40.3 38.6-40.3 10.1 0 20.1 5 26.8 13.4v-11.7h26.9v11.7h-13.4v62.1c0 26.9-13.5 38.6-42 37zm28.5-70.5c0-15.8-11.2-28.6-25.1-28.6-14 0-25.2 12.8-25.2 28.6 0 15.7 11.2 28.5 25.2 28.5 13.9 0 25.1-12.8 25.1-28.5zm-156.1 38.6h-38.6v-11.8h13.4v-55.4h-13.4v-11.7h26.9v11.7c5-6.7 16.7-13.4 26.8-13.4 11.8 0 23.5 6.7 23.5 21.8v45.3h11.8v11.8h-40.3v-11.8h13.4v-41.9c0-6.7-3.3-13.5-10.1-13.5-11.7 0-18.4 6.8-26.8 13.5v43.6h13.4zm-868 364.3c-23.2 0-42-18-42-40.3 0-22.3 18.8-40.3 42-40.3 23.2 0 42 18 42 40.3 0 22.3-18.8 40.3-42 40.3zm26.9-40.3c0-15.8-12.1-28.5-26.9-28.5-14.9 0-26.9 12.7-26.9 28.5 0 15.8 12 28.6 26.9 28.6 14.8 0 26.9-12.8 26.9-28.6zm1035.9-564v45.3h11.7v11.7h-38.6v-11.7h13.4v-42c0-6.7-3.3-13.4-10-13.4-11.8 0-18.5 6.7-26.9 13.4v43.7h13.4v11.7h-40.3v-11.7h13.5v-55.4h-13.5v-11.8h28.6v11.8c5-6.8 16.8-13.5 26.8-13.5 11.8 0 23.5 6.7 23.5 21.9zm-273.6 354.2v-13.5h25.2v11.8h-13.5v55.4h11.8v11.7h-25.2v-11.7c-6.7 8.4-16.8 13.4-26.9 13.4-23.5 0-38.6-18.4-38.6-40.3 0-23.5 15.1-40.3 38.6-40.3 10.1 0 21.9 5.1 26.9 13.5zm-1.7 28.5c0-15.8-11.2-28.5-25.2-28.5-13.9 0-25.2 12.7-25.2 28.5 0 15.8 11.3 28.6 25.2 28.6 14 0 25.2-12.8 25.2-28.6zm-11.7 307.2c-5.1 0-10.1-3.3-10.1-10 0-5.1 5-10.1 10.1-10.1 5 0 10 3.3 10 10.1 0 6.7-5 10-10 10zm169.5-307.2c0 23.5-18.4 40.3-36.9 40.3-11.8 0-21.8-3.4-26.9-11.7v33.5h15.1v11.8h-41.9v-11.8h13.4v-90.6h-13.4v-11.8h26.8v11.8c8.4-10.1 16.8-13.5 28.6-13.5 20.1 0 36.9 18.5 35.2 42zm-13.4 0c0-15.8-10.9-28.5-24.3-28.5-13.5 0-24.4 12.7-24.4 28.5 0 15.8 10.9 28.6 24.4 28.6 13.4 0 24.3-12.8 24.3-28.6zm142.7 0c0 23.5-18.5 40.3-36.9 40.3-11.8 0-21.8-3.4-26.9-11.7v33.5h15.1v11.8h-41.9v-11.8h13.4v-90.6h-13.4v-11.8h26.8v11.8c8.4-10.1 16.8-13.5 28.6-13.5 20.1 0 36.9 18.5 35.2 42zm-13.4 0c0-15.8-10.9-28.5-24.4-28.5-13.4 0-24.3 12.7-24.3 28.5 0 15.8 10.9 28.6 24.3 28.6 13.5 0 24.4-12.8 24.4-28.6zm-23.5 335.8q-0.8-1-1.7-2v2zm-1.7-2v-9.8h26.9v11.8h-13.4v60.4c0 26.9-13.5 38.6-40.3 38.6-15.2 0-31.9-6.7-37-23.5h16.8c3.4 8.4 13.4 11.8 21.8 11.8 15.1 0 25.2-6.7 25.2-25.2v-8.4c0 5-11.7 13.4-25.2 13.4-26.8 0-38.6-20.1-38.6-40.3 0-18.4 13.5-40.3 38.6-40.3 9.3 0 18.6 4.3 25.2 11.5zm1.7 28.8c0-15.7-11.3-28.5-25.2-28.5-13.9 0-25.2 12.8-25.2 28.5 0 15.8 11.3 28.6 25.2 28.6 13.9 0 25.2-12.8 25.2-28.6zm-251.8 28.6h13.4v11.7h-40.3v-11.7h13.4v-55.4h-13.4v-11.8h26.9zm-240.1-169.5h-40.3v-11.8h13.4v-99h-13.4v-11.8h26.8v109.1h13.5zm-161.2-183h-11.8v-25.1h11.8c3.3 11.7 16.8 15.1 25.2 15.1 6.7 0 18.4-1.7 18.4-11.8 0-18.4-55.4 1.7-55.4-35.2 0-15.1 15.1-21.9 28.6-21.9 8.4 0 16.8 3.4 23.5 8.4v-6.7h11.7v23.5h-11.7c-1.7-5-5.1-8.4-8.4-10-3.4-1.7-6.7-3.4-11.8-3.4-10 0-18.4 1.7-18.4 10.1 0 20.1 55.4 1.6 55.4 35.2 0 16.8-15.1 23.5-30.2 23.5-10.1 0-20.2-3.3-26.9-10zm225-214.9h-67.2c1.7 15.1 13.4 23.5 25.2 23.5 11.7 0 20.1-5.1 25.2-13.5h13.4c-5 13.5-21.8 23.5-40.3 23.5-21.8 0-40.3-16.7-40.3-40.2 0-21.9 18.5-40.3 40.3-40.3 23.5 0 40.3 20.1 43.7 47zm-16.8-13.5c0-11.7-13.5-21.8-26.9-21.8-13.4 0-25.2 10.1-26.8 21.8zm-77.3-147.7v11.8h-25.2v-11.8c-6.7 8.4-16.8 13.4-26.8 13.4-23.5 0-38.6-16.8-38.6-40.3 0-21.8 15.1-40.2 38.6-40.2 8.4 0 20.1 5 25.2 13.4v-43.7h-15.2v-11.7h28.6v109.1zm-26.9-26.9c0-15.7-11.2-28.5-25.2-28.5-13.9 0-25.1 12.8-25.1 28.5 0 15.8 11.2 28.6 25.1 28.6 14 0 25.2-12.8 25.2-28.6zm-382.8 183v26.9h15.1v11.7h-41.9v-11.7h13.4v-55.4h-13.4v-11.8h26.8v15.1c6.7-11.7 16.8-16.7 30.2-16.7v13.4c-23.5 1.7-30.2 8.4-30.2 28.5zm376.1-28.5l-28.5 25.2 28.5 30.2h6.7v11.7h-36.9v-11.7h10.1l-28.6-28.5v28.5h10.1v11.7h-36.9v-11.7h13.4v-99.1h-11.8v-11.7h26.9v78.9l28.5-23.5h-10v-11.8h36.9v11.8zm-325.7-305.5c0 5-5 10-10.1 10-5 0-10.1-3.3-10.1-10 0-5.1 5.1-10.1 10.1-10.1 6.7 0 11.8 5 10.1 10.1zm21.8 357.5l47-55.4h-31.9v15.1h-13.4v-25.1h63.8v11.7l-47 55.4h33.6v-16.8h13.4v28.6h-65.5zm48.7-384.5v26.9h15.1v11.7h-42v-11.7h13.5v-55.4h-13.5v-11.8h26.9v15.1c6.7-11.7 16.8-16.7 30.2-16.7v13.4c-23.5 1.7-30.2 8.4-30.2 28.5zm-40.3 498.6c10.1 0 21.8 5.1 26.9 13.5v-11.8h25.2v11.8h-13.5v55.4h13.5v11.7h-25.2v-11.7c-6.7 8.3-16.8 13.4-26.9 13.4-23.5 0-38.6-18.5-38.6-40.3 0-21.8 15.1-40.3 38.6-42zm26.9 42c0-15.8-11.3-28.5-25.2-28.5-13.9 0-25.2 12.7-25.2 28.5 0 15.8 11.3 28.5 25.2 28.5 13.9 0 25.2-12.7 25.2-28.5zm171.2-355.9h-67.1c1.6 15.1 13.4 23.5 25.2 23.5 11.7 0 20.1-5 25.1-13.4h13.5c-5.1 13.4-21.9 23.5-40.3 23.5-21.9 0-40.3-16.8-40.3-40.3 0-23.5 18.4-40.3 40.3-40.3 23.5 0 40.3 20.1 43.6 47zm-16.8-13.4c0-11.8-13.4-21.9-26.8-21.9-13.5 0-25.2 10.1-26.9 21.9zm381.1 218.2h15.1v-55.4h-13.4v-11.8h25.2v65.5h13.4v11.8h-40.3zm-115.8-204.8h-67.2c1.7 15.1 13.5 23.5 25.2 23.5 11.8 0 20.2-5.1 25.2-13.5h15.1c-5 13.5-21.8 23.5-40.3 23.5-21.8 0-40.3-16.8-40.3-40.3 0-23.5 18.5-40.2 40.3-40.2 23.5 0 40.3 20.1 42 47zm-15.1-13.5c0-11.7-13.5-21.8-26.9-21.8-13.4 0-25.2 10.1-26.9 21.8zm-290.4-288.7h-481.9v-11.8h486.9l146.1 147.8h495.3v11.7h-500.3zm879.7 594.3c0-5 5.1-10.1 10.1-10.1 5 0 10.1 3.4 10.1 10.1 0 5-5.1 10.1-10.1 10.1-5 0-10.1-5.1-10.1-10.1zm-263.6-327.4h-13.4v55.4h13.4v11.8h-25.2v-11.8c-6.7 8.4-16.7 13.5-26.8 13.5-23.5 0-38.6-18.5-38.6-40.3 0-23.5 15.1-40.3 38.6-40.3 10.1 0 21.8 5 26.8 13.4v-11.7h25.2zm-25.2 28.5c0-15.8-11.2-28.5-25.1-28.5-14 0-25.2 12.7-25.2 28.5 0 15.8 11.2 28.5 25.2 28.5 13.9 0 25.1-12.7 25.1-28.5zm-241.7 183v26.9h15.1v11.7h-42v-11.7h13.4v-55.4h-13.4v-11.8h25.2v15.1c6.7-11.7 16.8-16.8 30.2-16.8v13.5c-23.5 1.6-28.5 8.3-28.5 28.5zm21.8-181.3v26.8h15.1v11.8h-42v-11.8h13.5v-55.4h-13.5v-11.7h26.9v13.4c6.7-11.7 16.8-16.8 30.2-16.8v13.5c-23.5 1.6-30.2 10-30.2 30.2zm115.9 25.2v13.4h-40.3v-11.8h13.4v-99h-13.4v-11.8h26.8v109.2zm-47 99c-5 0-10.1-3.3-10.1-10.1 0-5 5.1-10 10.1-10 5 0 10.1 3.3 10.1 10 0 6.8-5.1 11.8-10.1 10.1zm-713.5-119.2h-67.2c1.7 15.1 13.4 23.5 25.2 23.5 11.7 0 20.1-5 25.2-13.4h13.4c-5 13.4-21.8 23.5-40.3 23.5-21.8 0-40.3-16.8-40.3-40.3 0-23.5 18.5-40.3 40.3-40.3 25.2 0 40.3 20.2 43.7 47zm-16.8-13.4c0-11.8-13.5-21.8-26.9-21.8-13.4 0-25.2 10-26.9 21.8zm-124.2 45.3v-11.7c-6.7 8.4-16.8 13.4-26.9 13.4-23.5 0-38.6-16.8-38.6-40.3 0-21.8 15.1-40.3 38.6-40.3 8.4 0 20.2 5.1 25.2 13.4v-43.6h-15.1v-11.8h28.6v109.2h11.7v11.7zm-1.7-38.6c0-15.8-11.2-28.5-25.2-28.5-13.9 0-25.1 12.7-25.1 28.5 0 15.8 11.2 28.5 25.1 28.5 14 0 25.2-12.7 25.2-28.5zm72.2-141c-5 0-10.1-3.4-10.1-10.1 0-5 5.1-10.1 10.1-10.1 5.1 0 10.1 3.4 10.1 10.1 0 6.7-5 11.8-10.1 10.1zm-137.7-38.6c0-23.5 15.2-40.3 38.7-40.3 10 0 21.8 5 26.8 13.4v-11.7h25.2v11.7h-13.4v53.7h13.4v11.8h-25.2v-11.8c-6.7 8.4-16.8 13.5-26.8 13.5-23.5 0-38.7-16.8-38.7-40.3zm65.5 0c0-15.8-11.2-28.6-25.2-28.6-13.9 0-25.1 12.8-25.1 28.6 0 15.8 11.2 28.5 25.1 28.5 14 0 25.2-12.7 25.2-28.5zm159.5 40.3c-10 0-20.1-3.4-26.8-10.1v8.4h-11.8v-25.2h11.8c3.3 10.1 16.8 15.1 25.1 15.1 6.8 0 18.5-1.7 18.5-11.7 0-18.5-55.4 1.6-55.4-35.3 0-15.1 15.1-21.8 28.6-21.8 8.3 0 16.7 3.3 23.5 8.4v-6.7h11.7v23.5h-11.7c-1.7-5.1-5.1-8.4-8.4-10.1-3.4-1.7-6.8-3.4-11.8-3.4-10.1 0-18.5 1.7-18.5 10.1 0 20.2 55.4 1.7 55.4 35.3 0 16.8-15.1 23.5-30.2 23.5zm-115.8 530.5v-42c0-10.1-3.4-15.1-13.5-15.1-6.7 0-16.7 8.4-20.1 13.4v43.7h11.8v11.7h-37v-11.7h11.8v-42c0-10.1-3.4-15.1-13.5-15.1-6.7 0-16.8 8.4-20.1 13.4v43.7h11.7v11.7h-38.6v-11.7h11.8v-55.4h-11.8v-11.8h26.9v10.1c6.7-5.1 16.8-11.8 25.2-11.8 10 0 18.4 5.1 21.8 13.5 8.4-8.4 16.8-13.5 28.5-13.5 15.2 0 21.9 15.1 21.9 28.6v40.3h10v11.7h-36.9v-11.7zm-60.4 297.1h35.2v11.8h-10.1l-28.5 65.4h-10.1l-26.8-65.4h-10.1v-11.8h36.9v11.8h-11.7l16.8 45.3 20.1-45.3h-11.7zm-40.3-533.9h-10.1v-11.7h36.9v11.7h-11.7l16.8 45.3 20.1-45.3h-11.7v-11.7h35.2v11.7h-10.1l-28.5 65.5h-10.1zm40.3 350.8h35.3v11.8h-10.1l-28.5 65.5h-10.1l-26.9-65.5h-10v-11.8h36.9v11.8h-11.8l16.8 45.3 20.2-45.3h-11.8zm151.1-317.3h-67.1c1.7 15.1 13.4 23.5 25.2 23.5 11.7 0 20.1-5 25.1-13.4h13.5c-5.1 13.4-21.9 23.5-40.3 23.5-21.8 0-40.3-16.8-40.3-40.3 0-21.8 18.5-40.3 40.3-40.3 23.5 0 40.3 20.1 43.6 47zm-16.8-13.4c0-11.8-13.4-21.8-26.8-21.8-13.5 0-25.2 10-26.9 21.8z"/>
	</g>
</svg>