<?xml version="1.0" standalone="no"?>
<!DOCTYPE svg PUBLIC "-//W3C//DTD SVG 20010904//EN"
 "http://www.w3.org/TR/2001/REC-SVG-20010904/DTD/svg10.dtd">
<svg version="1.0" xmlns="http://www.w3.org/2000/svg"
 width="700.000000pt" height="700.000000pt" viewBox="0 0 700.000000 700.000000"
 preserveAspectRatio="xMidYMid meet">
<metadata>
Created by potrace 1.11, written by Peter Selinger 2001-2013
</metadata>
<g transform="translate(0.000000,700.000000) scale(0.100000,-0.100000)"
fill="#000000" stroke="none">
<path d="M3842 6021 c-5 -15 -8 -59 -5 -97 l6 -69 -51 53 c-56 57 -66 61 -81
33 -13 -24 -1 -66 34 -119 39 -60 30 -94 -48 -177 -74 -80 -88 -108 -81 -158
6 -40 -6 -68 -52 -117 -13 -14 -51 -79 -84 -145 -34 -65 -79 -138 -100 -161
-22 -24 -42 -55 -46 -69 -9 -38 2 -116 23 -161 20 -42 74 -84 107 -84 12 0 34
-7 50 -15 35 -19 66 -19 101 -1 32 17 48 39 64 87 8 26 29 49 68 79 116 86
214 120 243 85 19 -23 6 -138 -25 -215 -87 -215 -209 -382 -378 -515 -21 -17
-44 -35 -50 -40 -41 -36 -200 -118 -294 -151 -111 -39 -283 -44 -478 -14 -219
33 -314 41 -400 35 -131 -10 -272 -56 -377 -122 -51 -31 -68 -29 -163 16 -82
40 -143 95 -239 216 -57 72 -144 157 -196 192 -85 58 -240 79 -345 48 -162
-48 -285 -166 -339 -324 -37 -111 -38 -316 -2 -427 16 -48 46 -114 56 -124 3
-3 18 -24 33 -47 35 -55 141 -157 238 -230 83 -62 109 -95 109 -138 0 -52 -38
-99 -126 -157 -81 -53 -117 -98 -128 -160 -14 -78 28 -153 102 -184 44 -18 71
-18 110 2 37 18 40 34 12 54 -28 21 -26 64 6 89 14 11 67 34 119 51 167 56
242 123 266 239 28 135 -18 251 -143 362 -143 126 -178 162 -198 203 -24 51
-27 138 -5 156 9 7 17 11 18 9 2 -2 14 -19 26 -36 12 -18 26 -33 31 -33 5 0
19 19 31 42 30 58 91 114 131 121 47 7 53 -5 24 -48 -30 -43 -32 -74 -11 -115
19 -37 25 -37 56 -4 40 43 77 57 128 49 25 -4 73 -10 106 -13 68 -8 70 -12 26
-76 -91 -133 -126 -304 -102 -499 19 -146 24 -266 13 -280 -5 -7 -12 -25 -16
-41 -16 -68 -110 -180 -221 -265 -133 -102 -142 -123 -126 -298 6 -67 11 -172
11 -235 -1 -127 -25 -467 -39 -543 -21 -112 -18 -122 59 -195 76 -74 90 -99
90 -166 0 -60 23 -112 52 -119 13 -3 88 -4 168 -3 l145 3 3 42 c5 62 -34 122
-116 181 -155 110 -191 184 -192 389 0 181 42 528 71 590 37 78 143 163 201
163 58 0 182 46 281 104 46 27 47 27 47 6 0 -32 -63 -139 -101 -170 -18 -15
-39 -79 -39 -120 0 -60 26 -112 91 -180 28 -30 72 -82 97 -115 25 -33 49 -62
52 -65 14 -11 189 -249 229 -310 41 -65 54 -99 66 -175 7 -41 62 -105 91 -105
30 0 63 -51 79 -123 27 -121 20 -117 200 -117 142 0 155 2 165 19 15 30 12 62
-11 106 -30 57 -63 89 -154 149 -116 77 -193 168 -310 371 -16 27 -32 54 -37
60 -93 115 -201 275 -213 315 -4 14 -12 31 -19 39 -6 8 -11 50 -11 95 0 76 2
83 30 115 17 18 57 46 90 61 77 35 150 91 195 147 19 24 42 51 51 61 51 55
167 266 184 335 9 35 11 34 345 -8 286 -36 448 -39 650 -9 104 16 206 40 225
54 6 4 39 17 75 30 36 13 71 28 79 34 13 10 70 12 221 6 55 -2 78 3 155 34 98
41 248 117 253 129 2 4 9 7 16 7 6 0 28 11 48 25 54 36 133 81 215 120 52 25
86 35 121 35 45 0 54 -4 99 -48 28 -26 68 -75 91 -110 39 -61 108 -235 152
-382 31 -108 51 -144 78 -148 13 -2 26 -10 29 -18 5 -13 -31 -93 -47 -104 -12
-8 -40 -67 -40 -85 0 -25 45 -89 85 -119 46 -36 144 -86 168 -86 33 0 63 43
76 107 10 51 9 82 -3 170 -16 115 -27 145 -86 233 -79 118 -191 339 -235 465
-10 28 -28 74 -41 103 -13 29 -24 55 -24 57 0 16 -68 146 -93 178 -53 68 -64
70 -296 63 -113 -4 -221 -10 -240 -13 -60 -10 -30 17 44 41 74 24 201 84 271
129 109 68 183 75 278 25 33 -18 63 -35 66 -38 3 -3 21 -17 40 -30 95 -64 274
-274 317 -370 20 -45 43 -63 95 -74 41 -9 53 -39 39 -101 -15 -64 -5 -93 43
-130 49 -37 207 -65 252 -44 42 21 51 57 30 124 -14 46 -33 73 -102 145 -46
49 -84 94 -84 99 0 6 -64 75 -143 153 -79 79 -193 201 -253 273 -163 194 -211
242 -270 271 l-53 26 -228 -7 c-125 -3 -256 -11 -290 -17 -51 -9 -64 -9 -75 3
-38 38 -50 97 -23 119 14 12 29 11 69 -5 17 -8 18 -4 14 42 -6 59 -36 126 -78
173 -43 48 -37 100 11 100 52 0 169 79 169 114 0 8 -12 22 -27 32 -42 26 -113
95 -134 128 l-18 29 57 20 c69 23 98 48 123 105 11 24 19 46 19 48 0 2 -13 4
-30 4 -29 0 -80 42 -80 66 0 15 -86 102 -132 134 -56 38 -63 63 -33 108 37 53
48 104 35 152 -12 44 -16 46 -44 25 -27 -20 -96 -18 -121 3 -11 9 -31 40 -44
68 -41 90 -118 154 -214 178 -22 5 -34 19 -52 60 -21 48 -39 66 -66 66 -5 0
-9 -6 -9 -13 0 -8 -9 -22 -20 -32 -32 -29 -95 -15 -141 32 -20 21 -48 43 -60
49 -13 6 -37 17 -52 25 -17 8 -37 31 -49 56 -23 50 -42 55 -56 14z m97 -102
c61 -32 84 -71 32 -54 -26 8 -81 53 -81 66 0 13 4 12 49 -12z m-91 -109 c8 0
12 -20 12 -59 0 -33 5 -63 10 -66 15 -9 12 -56 -5 -105 -8 -23 -15 -44 -15
-46 0 -2 20 -24 45 -50 25 -25 45 -52 45 -60 0 -17 -1 -17 -36 -4 -60 23 -112
-6 -195 -110 -51 -64 -80 -113 -123 -212 -21 -49 -45 -88 -52 -88 -7 0 -25 -5
-39 -12 -21 -10 -25 -18 -25 -57 0 -28 10 -67 25 -100 l25 -54 -36 6 c-20 3
-45 13 -55 22 -44 41 -63 135 -36 182 6 12 33 52 58 90 26 37 50 79 54 93 4
13 41 75 81 137 79 121 91 151 76 180 -14 26 6 68 63 128 76 81 95 150 55 210
-31 47 -23 52 18 12 21 -20 43 -37 50 -37z m631 -170 c16 -17 43 -54 60 -84
36 -62 68 -86 122 -93 41 -6 44 -9 29 -33 -6 -10 -25 -15 -53 -15 -53 0 -90
32 -133 116 -15 30 -38 71 -51 91 -13 21 -23 40 -23 43 0 13 21 2 49 -25z
m-232 -72 c113 -41 223 -130 287 -231 75 -118 96 -195 103 -374 8 -198 1 -239
-45 -289 -20 -22 -82 -94 -137 -159 -55 -65 -109 -128 -120 -141 -11 -12 -51
-59 -89 -104 -69 -81 -88 -92 -94 -52 -4 25 9 45 65 105 171 184 273 440 273
687 0 250 -94 431 -274 525 -42 22 -76 43 -76 48 0 14 49 7 107 -15z m590
-440 c18 -18 33 -37 33 -43 0 -6 13 -26 30 -45 37 -44 37 -52 3 -48 -23 2 -34
15 -63 69 -19 37 -41 74 -49 83 -26 31 11 18 46 -16z m73 -437 c17 -14 20 -21
10 -20 -17 0 -38 15 -60 43 -14 18 -14 19 5 8 11 -6 31 -20 45 -31z m-118
-278 c20 -23 41 -64 36 -69 -7 -7 -68 58 -68 72 0 19 14 18 32 -3z m-3534 -28
c76 -18 137 -52 195 -109 51 -50 102 -115 95 -122 -3 -2 -48 5 -99 16 -66 14
-125 20 -197 19 -57 -1 -106 1 -109 5 -14 13 -78 5 -121 -16 -49 -25 -100 -71
-173 -158 l-45 -54 -27 20 c-70 51 -2 223 127 320 60 45 101 64 170 79 81 18
109 18 184 0z m2512 -265 c-6 -12 -21 -33 -33 -47 -72 -85 -60 -79 -379 -187
-168 -57 -311 -107 -318 -111 -7 -5 -110 -9 -229 -10 -225 -1 -265 -7 -401
-57 -61 -22 -153 -69 -158 -80 -2 -5 -9 -8 -16 -8 -7 0 -24 -9 -37 -20 -35
-29 -41 -33 -69 -51 -14 -9 -52 -41 -84 -71 -46 -44 -75 -61 -135 -81 -42 -14
-83 -28 -92 -32 -15 -6 -15 0 1 61 38 139 116 256 243 361 26 22 26 23 11 60
-16 36 -16 37 12 57 177 132 369 144 737 47 118 -31 137 -42 119 -64 -10 -12
5 -15 91 -20 141 -9 226 5 387 61 25 9 56 23 70 31 14 9 46 27 73 41 26 14 57
34 70 45 12 11 38 31 57 45 19 13 37 27 40 30 8 10 44 29 48 25 2 -2 -2 -13
-8 -25z m1705 -55 c33 -21 65 -54 65 -66 0 -4 -25 1 -55 12 -39 14 -102 22
-216 28 -89 5 -163 12 -166 14 -4 5 73 23 132 31 17 2 71 3 120 2 69 -1 97 -6
120 -21z m-166 -458 c28 -14 68 -64 58 -73 -3 -4 -21 0 -39 9 -21 9 -80 17
-158 21 -172 9 -218 16 -195 29 46 25 292 36 334 14z m-3909 -267 c19 -31 17
-30 -24 13 -25 26 -46 50 -46 53 0 13 50 -34 70 -66z m4833 -122 c13 -13 30
-40 38 -61 12 -33 11 -39 -1 -47 -22 -14 -63 -12 -84 3 -16 12 -18 22 -12 70
8 64 20 71 59 35z m-5043 -177 c0 -11 -17 -34 -37 -50 -140 -113 -189 -151
-195 -151 -5 0 -8 8 -8 18 0 21 60 92 78 92 6 0 12 4 12 9 0 5 10 11 23 15 12
3 42 23 67 45 51 46 60 49 60 22z m490 -253 c0 -24 -57 -132 -95 -183 -21 -27
-81 -87 -132 -133 -60 -54 -95 -93 -99 -110 -3 -15 -8 -38 -10 -52 -10 -44
-26 4 -28 79 -1 85 19 117 119 191 40 29 108 90 151 135 80 84 94 95 94 73z
m4101 -270 c12 -16 18 -39 19 -75 0 -61 -7 -83 -27 -83 -28 0 -83 41 -83 61 0
16 58 117 68 118 2 1 12 -9 23 -21z m-163 -30 c-3 -34 -20 -42 -26 -13 -5 22
5 45 18 45 7 0 10 -14 8 -32z m-3613 -194 c-10 -55 -24 -86 -35 -79 -16 10
-12 54 7 86 24 40 37 36 28 -7z m-715 -860 c0 -13 -4 -24 -10 -24 -5 0 -10 14
-10 31 0 17 4 28 10 24 6 -3 10 -17 10 -31z m360 -316 c0 -13 -67 -9 -78 5 -6
7 -14 32 -18 56 l-7 43 52 -48 c28 -26 51 -51 51 -56z m1214 48 c45 -37 47
-56 4 -56 -47 0 -59 11 -65 60 -7 48 -4 48 61 -4z m-1380 -62 c20 -19 19 -19
-4 -22 -30 -5 -50 21 -50 62 l0 31 18 -26 c9 -14 26 -35 36 -45z"/>
</g>
</svg>
