<svg enable-background="new -0.079 -0.661 100 37" height="192.353841" viewBox="-.079 -.661 100 37" width="519.875245" xmlns="http://www.w3.org/2000/svg"><path d="m29.358 18.497-2.753-8.472-2.757 8.472z" fill="#0079c1"/><path d="m22.812 21.658-.947 2.937h-3.621l6.207-19.075h4.306l-1.788-5.52-26.969 8.764 8.764 26.968 23.698-7.701-2.066-6.373z" fill="#0079c1"/><path d="m59.108 12.005c-.385-1.527-1.536-3.644-4.559-3.644-3.634 0-5.145 3.376-5.145 6.693 0 3.323 1.511 6.7 5.145 6.7 2.432 0 4.634-1.796 4.634-4.422h-4.505v-3.162h7.628v10.424h-2.969v-1.636c-1.203 1.421-3.201 2.116-4.788 2.116-5.836 0-8.729-4.635-8.729-10.021 0-5.382 3.276-10.017 8.729-10.017 3.713 0 6.375 1.956 7.757 5.6z"/><path d="m82.298 15.055c0 5.386-3.344 10.021-8.913 10.021-5.559 0-8.904-4.635-8.904-10.021 0-5.382 3.346-10.017 8.904-10.017 5.569 0 8.913 4.635 8.913 10.017m-14.158 0c0 3.323 1.543 6.7 5.245 6.7 3.712 0 5.255-3.377 5.255-6.7 0-3.317-1.543-6.693-5.255-6.693-3.702-.001-5.245 3.375-5.245 6.693z"/><path d="m45.494 21.271h-10.218v-4.929h7.207v-3.162h-7.207v-4.337h9.525v-3.323h-13.114v9.008l3.27 10.067h10.537z"/><path d="m95.944 5.52v12.894l-7.948-12.894h-3.414v19.075h3.268v-13.079l8.067 13.079h3.295v-19.075z"/><path d="m87.85 29.136h-51.417l.634 1.952h50.783z"/></svg>