<svg width="40" height="40" viewBox="0 0 40 40" fill="none" xmlns="http://www.w3.org/2000/svg">
<path d="M38 15.9592L32.7102 10.6694H29.3306V7.43674L24.0408 2.14694L20.0735 6.26122L15.9592 2L10.6694 7.2898V10.5224H7.2898L2 15.9592L6.11429 20.0735L2 24.1878L7.2898 29.6245H10.6694V32.8571L15.9592 38L19.9265 33.8857L23.8939 38L29.1837 32.7102V29.4776H32.5633L37.8531 24.0408L33.7388 19.9265L38 15.9592ZM31.5347 13.1673L34.3265 15.9592L31.5347 18.898H29.1837V13.3143H31.5347V13.1673ZM26.9796 26.8327H13.4612V13.3143H26.9796V26.8327ZM26.9796 8.31837V10.5224H21.3959V8.31837L24.1878 5.52653L26.9796 8.31837ZM13.3143 8.31837L15.9592 5.52653L18.6041 8.31837V10.5224H13.3143V8.31837ZM8.31837 13.1673H10.6694V18.898H8.31837L5.52653 15.9592L8.31837 13.1673ZM8.31837 26.8327L5.52653 24.0408L8.31837 21.249H10.6694V26.8327H8.31837ZM13.3143 31.5347V29.4776H18.6041V31.5347L15.9592 34.3265L13.3143 31.5347ZM26.9796 31.5347L24.1878 34.3265L21.3959 31.5347V29.4776H26.9796V31.5347ZM31.5347 26.8327H29.1837V21.249H31.5347L34.3265 24.0408L31.5347 26.8327Z" fill="#C5BF10"/>
</svg>
