<?xml version="1.0" encoding="UTF-8"?>
<svg id="Layer_1" data-name="Layer 1" xmlns="http://www.w3.org/2000/svg" viewBox="0 0 740.73 115.46">
  <defs>
    <style>
      .cls-1 {
        fill: #c6da16;
      }

      .cls-2 {
        fill: #1d4a90;
      }
    </style>
  </defs>
  <path class="cls-2" d="m129.48,82.56l-10.31-57.87h10.1l3.5,24.67c.95,6.83,1.58,13.44,2.3,20.52h.24c.79-7.21,2.06-13.5,3.34-20.58l4.55-24.61h7.96l4.34,24.32c1.14,6.61,2.23,13.09,2.98,20.87h.2c.8-7.83,1.65-14.07,2.49-20.71l3.48-24.48h9.53l-10.56,57.87h-9.96l-4.13-21.99c-1.01-5.64-1.95-12.2-2.7-19.04h-.19c-.93,6.86-1.92,13.22-3.17,19.16l-4.5,21.87h-9.49Z"/>
  <path class="cls-2" d="m202.39,64.48c.16-1.11.28-2.59.28-5.13,0-11.6-4.68-19.34-13.54-19.34s-15.91,8.41-15.91,22.32c0,12.98,5.91,20.73,16.9,20.73,3.94,0,8.07-.74,10.76-1.94l-1.35-6.98c-1.92.78-4.55,1.47-7.65,1.47-4.91,0-9.12-2.51-9.23-11.13h19.74Zm-19.7-6.87c.15-4.72,1.87-10.4,5.78-10.4,3.28,0,5.29,4.04,5.22,10.4h-11Z"/>
  <path class="cls-2" d="m206.93,73.52c1.59,1,4.51,2.18,7.33,2.18,3.16,0,5.08-1.62,5.08-4.5,0-2.51-1.23-4.12-5.06-6.49-6.39-3.74-8.49-7.85-8.49-11.99,0-7.29,5.31-12.71,13.08-12.71,3.42,0,6.09.94,8.17,2.02l-1.91,7.14c-1.59-.98-3.49-1.76-5.76-1.76-3.1,0-4.6,2-4.6,4.15s1.01,3.4,5.02,5.89c5.73,3.37,8.53,7.56,8.53,12.66,0,8.53-6.02,12.93-14.12,12.93-3.34,0-7.24-.94-9.11-2.4l1.86-7.14Z"/>
  <path class="cls-2" d="m244.27,30.2v10.49h8.15v7.02h-8.15v21.01c0,5.07,2,6.34,4.28,6.34,1.09,0,1.96-.1,2.89-.26l.15,7.57c-1.43.42-3.53.7-6.23.7-3.05,0-5.73-.74-7.61-2.61-2.1-2.12-3.2-5.18-3.2-11.48v-21.27h-4.99v-7.02h4.99v-7.28l9.73-3.21Z"/>
  <rect class="cls-2" x="256.65" y="23.15" width="9.75" height="59.41"/>
  <path class="cls-2" d="m299.24,56.59c0-8.8-2.59-16.58-13.89-16.58-5.32,0-9.84,1.75-11.96,3.05l1.83,6.59c2.33-1.46,4.91-2.34,8-2.34,4.41,0,6.18,2.9,6.18,6.97v1.07c-9.48.08-18.75,4.62-18.75,15.44,0,7.34,4.58,12.46,10.68,12.46,3.69,0,6.84-1.69,8.99-4.93h.21l.56,4.24h8.71c-.44-2.81-.55-6.28-.55-9.55v-16.42Zm-9.58,12.87c0,.72-.05,1.43-.22,2.05-.79,3.06-2.94,4.48-5.12,4.48-1.95,0-4.41-1.65-4.41-6.21,0-6.91,6.14-7.97,9.75-8.03v7.71Z"/>
  <path class="cls-2" d="m305.89,52.71c0-4.69-.2-8.23-.33-12.02h8.4l.51,4.92h.17c2.02-3.35,5.59-5.6,9.98-5.6,7.24,0,10.82,5.67,10.82,15.28v27.26h-9.72v-26.46c0-4-.86-7.89-4.69-7.89-2.18,0-4.11,1.62-4.9,4.76-.28.91-.5,2.26-.5,3.81v25.78h-9.73v-29.85Z"/>
  <path class="cls-2" d="m361.1,23.15v21.34h-.16c-1.28-2.77-3.74-4.47-7.28-4.47-6.85,0-13.2,7.08-13.2,21.74,0,12.36,4.44,21.5,12.77,21.5,4.04,0,7.26-2.62,8.74-5.61h.25l.54,4.92h8.36c-.15-3.38-.34-8.01-.34-11.59V23.15h-9.68Zm0,44.66c0,1.05-.11,1.98-.33,2.66-1.09,3.92-3.07,4.79-4.73,4.79-3.67,0-5.89-5.12-5.89-13.37,0-7.3,1.62-13.66,6.07-13.66,2.6,0,4.35,2.81,4.74,5.95.13.84.13,1.75.13,2.54v11.08Z"/>
  <path class="cls-2" d="m387.76,24.69v38c0,9.14,2.84,12.05,6.31,12.05,3.79,0,6.41-2.81,6.41-12.05V24.69h9.74v36.32c0,14.95-5.85,22.24-16.15,22.24-10.99,0-16.04-7.49-16.04-21.89V24.69h9.73Z"/>
  <path class="cls-2" d="m428.33,30.2v10.49h8.16v7.02h-8.16v21.01c0,5.07,2,6.34,4.29,6.34,1.07,0,1.93-.1,2.87-.26l.15,7.57c-1.43.42-3.54.7-6.21.7-3.06,0-5.75-.74-7.62-2.61-2.09-2.12-3.21-5.18-3.21-11.48v-21.27h-5v-7.02h5v-7.28l9.73-3.21Z"/>
  <path class="cls-2" d="m441.89,52.71c0-3.96-.2-8.35-.34-12.02h8.48l.49,6.29h.28c1.68-4.29,5.14-6.96,8.47-6.96.96,0,1.48.06,2.06.17v9.68c-.61-.11-1.24-.11-2.09-.11-2.96,0-6.18,2.4-7.22,6.86-.23,1-.41,2.42-.41,4.07v21.88h-9.72v-29.85Z"/>
  <path class="cls-2" d="m490.89,64.48c.17-1.11.27-2.59.27-5.13,0-11.6-4.66-19.34-13.53-19.34s-15.91,8.41-15.91,22.32c0,12.98,5.92,20.73,16.89,20.73,3.96,0,8.09-.74,10.77-1.94l-1.34-6.98c-1.92.78-4.56,1.47-7.66,1.47-4.92,0-9.11-2.51-9.22-11.13h19.73Zm-19.68-6.87c.15-4.72,1.86-10.4,5.75-10.4,3.28,0,5.3,4.04,5.23,10.4h-10.99Z"/>
  <path class="cls-2" d="m518.37,81.73c-1.25.65-3.94,1.34-7.08,1.34-10.14,0-16.83-7.36-16.83-21.08,0-12.64,7.13-21.87,18.38-21.87,2.51,0,4.91.61,6.04,1.2l-1.41,7.66c-.91-.35-2.4-.88-4.38-.88-5.83,0-8.93,6.07-8.93,13.65,0,8.31,3.38,13.39,8.9,13.39,1.69,0,3.1-.33,4.41-.96l.91,7.55Z"/>
  <path class="cls-2" d="m521.5,23.15h9.73v21.98h.17c.96-1.45,2.21-2.68,3.61-3.59,1.58-.95,3.46-1.52,5.62-1.52,6.91,0,10.43,5.78,10.43,16.38v26.17h-9.75v-25.95c0-4.41-.89-8.41-4.63-8.41-2.28,0-4.16,1.46-5.07,4.84-.16.76-.37,2.18-.37,3.15v26.37h-9.73V23.15Z"/>
  <path class="cls-2" d="m568.95,30.2v10.49h8.14v7.02h-8.14v21.01c0,5.07,1.99,6.34,4.27,6.34,1.08,0,1.94-.1,2.88-.26l.17,7.57c-1.44.42-3.55.7-6.24.7-3.04,0-5.72-.74-7.6-2.61-2.1-2.12-3.21-5.18-3.21-11.48v-21.27h-5.01v-7.02h5.01v-7.28l9.73-3.21Z"/>
  <path class="cls-1" d="m74.58,75.65c.73,0,1.33-.58,1.33-1.32v-32.36c0-.75-.6-1.33-1.33-1.33h-32.44c-.74,0-1.33.59-1.33,1.33v32.36c0,.74.59,1.32,1.33,1.32h32.44Zm-33.05,6.91c-.74,0-.66.05-.8.71v6.44c0,1.49,6.27,7.82,7,7.82.77,0,7.05-6.33,7.05-7.82v-6.44c-.1-.66-.06-.71-.8-.71h-12.45Zm21.03,0c-.74,0-.68.05-.79.71v6.44c0,1.49,6.27,7.82,7.02,7.82s7.03-6.33,7.03-7.82v-6.44c-.11-.66-.04-.71-.8-.71h-12.46Zm-28.71-41.14c0-.75-.07-.67-.73-.79h-6.44c-1.52,0-7.85,6.25-7.85,7.01s6.34,7,7.85,7h6.44c.66-.11.73-.04.73-.8v-12.41Zm0,21c0-.73-.07-.68-.73-.79h-6.44c-1.52,0-7.85,6.25-7.85,7s6.34,7,7.85,7h6.44c.66-.12.73-.05.73-.79v-12.43Zm41.17-28.6c.75,0,.69-.07.81-.74v-6.43c0-1.48-6.26-7.82-7.03-7.82s-7.01,6.34-7.01,7.82v6.43c.11.67.03.74.78.74h12.45Zm-21.05,0c.74,0,.7-.07.8-.74v-6.43c0-1.48-6.27-7.82-7.01-7.82s-7.02,6.34-7.02,7.82v6.43c.12.67.04.74.81.74h12.42Zm28.72,41.1c0,.75.06.68.72.8h6.46c1.51,0,7.84-6.25,7.84-7.01s-6.32-7-7.84-7h-6.46c-.65.12-.72.03-.72.79v12.42Zm0-21c0,.74.06.68.72.8h6.46c1.51,0,7.84-6.24,7.84-7s-6.32-7-7.84-7h-6.46c-.65.1-.72.04-.72.79v12.41Zm-48.85-28.88c0-2.98,12.37-15.04,13.84-15.04,1.02,0,6.74,5.31,10.54,9.73,3.74-4.42,9.52-9.73,10.54-9.73,1.47,0,13.85,12.06,13.85,15.04v7.94c-.03.61.34.86.92.86.58.04,6.13,0,7.97,0,2.96,0,15.02,12.35,15.02,13.85,0,.95-5.3,6.7-9.73,10.45,4.46,3.78,9.73,9.55,9.73,10.55,0,1.48-12.06,13.8-15.02,13.8l-7.91-.05c-.6-.01-.89.36-.9.92l-.02,7.96c0,2.99-12.34,15.01-13.84,15.01-.99,0-6.71-5.28-10.48-9.71-3.79,4.44-9.57,9.71-10.56,9.71-1.49,0-13.84-12.02-13.84-15.01v-7.96c0-.57-.35-.85-.94-.85-.59-.03-6.14,0-7.98,0-2.95,0-15.04-12.33-15.04-13.81,0-.99,5.32-6.73,9.75-10.49-4.43-3.75-9.75-9.52-9.75-10.51,0-1.49,12.09-13.81,15.04-13.81h7.98c.6.01.85-.36.88-.94l-.04-7.9Z"/>
  <path class="cls-1" d="m656.27,56.59c0-8.8-2.6-16.58-13.89-16.58-5.32,0-9.84,1.75-11.97,3.05l1.84,6.59c2.33-1.46,4.91-2.34,7.99-2.34,4.41,0,6.17,2.9,6.17,6.97v1.07c-9.47.08-18.74,4.62-18.74,15.44,0,7.34,4.58,12.46,10.68,12.46,3.69,0,6.84-1.69,8.98-4.93h.2l.56,4.24h8.71c-.44-2.81-.55-6.28-.55-9.55v-16.42Zm-9.58,12.87c0,.72-.05,1.43-.22,2.05-.78,3.06-2.94,4.48-5.12,4.48-1.95,0-4.41-1.65-4.41-6.21,0-6.91,6.14-7.97,9.75-8.03v7.71Z"/>
  <path class="cls-1" d="m662.75,52.71c0-4.69-.2-8.23-.33-12.02h8.4l.5,4.92h.17c2.03-3.35,5.59-5.6,9.99-5.6,7.24,0,10.83,5.67,10.83,15.28v27.26h-9.73v-26.46c0-4-.85-7.89-4.69-7.89-2.18,0-4.11,1.62-4.9,4.76-.29.91-.51,2.26-.51,3.81v25.78h-9.73v-29.85Z"/>
  <path class="cls-1" d="m707.58,58.96h.17c.89-2.46,1.71-4.2,2.38-5.92l5.49-12.41h10.58l-9.5,18,10.49,23.84h-11.06l-6.18-18.04-2.39,4.41v13.63h-9.79V23.16h9.83v35.8Z"/>
  <path class="cls-1" d="m606.61,75.23c-.92,0-1.79,0-2.51-.18l-.38-.1v-18.53h2.8c4.26,0,8.54,2.93,8.54,9.49,0,5.76-3.24,9.33-8.45,9.33m-2.89-42.62l.32-.14c.67-.26,1.61-.38,3.05-.38,4.22,0,6.74,3.03,6.74,8.1s-3.14,8.81-7.31,8.81h-2.8v-16.39Zm21.47,33.47c0-6.15-2.95-11.39-7.97-13.59-.41-.16-.83-.32-1.28-.45v-.03l-.14-.05-.37-.11.3-.14c4.8-2.24,7.66-7.35,7.66-12.83,0-3.05-.7-7.3-4.01-10.24-3.95-3.57-9.13-4.05-13.68-4.05s-8.68.36-11.7,1.03v56.77c2.5.39,5.77.61,9.49.61,8.74,0,14.37-1.82,17.73-5.75,2.64-2.89,3.97-6.64,3.97-11.16"/>
</svg>