<svg width="67" height="46" viewBox="0 0 67 46" fill="none" xmlns="http://www.w3.org/2000/svg">
<path d="M65.98 40.1878C65.685 39.5624 65.1777 39.0433 64.5641 38.7247C63.7618 38.3117 62.8297 38.2527 61.9802 38.5359H61.9684C58.5939 39.7276 54.9008 37.946 53.7091 34.5715C53.4614 33.8871 53.3434 33.1556 53.3434 32.4241V25.9465H59.821C61.6144 26.0527 63.1483 24.6958 63.2545 22.9023C63.3606 21.1089 62.0038 19.5751 60.2103 19.4689C60.0805 19.4571 59.9508 19.4571 59.821 19.4689H53.3434V12.9677C53.2372 11.1742 51.7033 9.81734 49.9099 9.92353C48.2698 10.0179 46.9602 11.3276 46.8658 12.9677V19.4689H31.2086C24.0584 19.4689 18.2534 25.2621 18.2534 32.4241C18.2534 34.7013 18.8551 36.9313 19.9878 38.9017H19.4333C15.8582 38.9017 12.9557 35.9991 12.9557 32.4241V24.92L22.6544 17.0265C26.6896 13.4632 27.0672 7.31597 23.5039 3.29254C19.9406 -0.73089 13.8052 -1.12025 9.76995 2.43122C7.66974 4.28365 6.47805 6.93841 6.47805 9.73475V21.8404L1.19214 26.1471C-0.200136 27.2797 -0.400718 29.321 0.731978 30.7132C1.86467 32.1055 3.90589 32.3061 5.29816 31.1734L6.47805 30.2177V32.4241C6.46625 39.5742 12.2595 45.3675 19.4097 45.3793C19.4215 45.3793 19.4215 45.3793 19.4333 45.3793H31.2086C38.3823 45.3675 44.1756 39.5388 44.1638 32.3769C44.1638 30.1233 43.5621 27.9051 42.4412 25.9465H46.8658V32.4241C46.8658 39.5742 52.6708 45.3793 59.821 45.3793C61.2722 45.3793 62.7117 45.1433 64.0804 44.6596L64.4697 44.5062C66.0744 43.7392 66.7587 41.816 65.9918 40.2114C65.9918 40.1996 65.98 40.1996 65.98 40.1878ZM12.9675 16.5427V9.58137C13.0147 8.72004 13.3922 7.90592 14.0294 7.32777C15.4098 6.18328 17.451 6.38386 18.5955 7.76433C19.6456 9.03862 19.5749 10.9028 18.4186 12.0945L12.9675 16.5427ZM31.2086 38.9017C27.6335 38.9017 24.731 35.9991 24.731 32.4241C24.731 28.849 27.6335 25.9465 31.2086 25.9465C34.7837 25.9465 37.6862 28.849 37.6862 32.4241C37.6862 35.9991 34.7837 38.9017 31.2086 38.9017Z" fill="#E5006D"/>
<path d="M53.3546 16.2227H46.877V19.4792H53.3546V16.2227Z" fill="url(#paint0_linear_195_60688)"/>
<path d="M53.3428 25.9453H46.8652V29.1782H53.3428V25.9453Z" fill="url(#paint1_linear_195_60688)"/>
<path d="M12.9669 16.5432V13.6406L6.47754 19.0681V21.8409L12.9669 16.5432Z" fill="url(#paint2_linear_195_60688)"/>
<path d="M12.9669 24.918L6.47754 30.2157V32.4221C6.47754 32.953 6.51294 33.484 6.57193 34.0031L12.9551 28.7998L12.9669 24.918Z" fill="url(#paint3_linear_195_60688)"/>
<defs>
<linearGradient id="paint0_linear_195_60688" x1="50.1158" y1="20.4573" x2="50.1158" y2="16.5896" gradientUnits="userSpaceOnUse">
<stop offset="0.15" stop-color="#8B023C" stop-opacity="0.4"/>
<stop offset="0.51" stop-color="#BF7393" stop-opacity="0.22"/>
<stop offset="1" stop-color="white" stop-opacity="0"/>
</linearGradient>
<linearGradient id="paint1_linear_195_60688" x1="50.104" y1="24.9684" x2="50.104" y2="28.8089" gradientUnits="userSpaceOnUse">
<stop offset="0.15" stop-color="#8B023C" stop-opacity="0.4"/>
<stop offset="0.51" stop-color="#BF7393" stop-opacity="0.22"/>
<stop offset="1" stop-color="white" stop-opacity="0"/>
</linearGradient>
<linearGradient id="paint2_linear_195_60688" x1="10.4759" y1="18.6389" x2="9.03527" y2="16.9221" gradientUnits="userSpaceOnUse">
<stop stop-color="#8B023C" stop-opacity="0.35"/>
<stop offset="0.57" stop-color="#D39FB5" stop-opacity="0.13"/>
<stop offset="1" stop-color="white" stop-opacity="0"/>
</linearGradient>
<linearGradient id="paint3_linear_195_60688" x1="10.7606" y1="30.6416" x2="8.77719" y2="28.2783" gradientUnits="userSpaceOnUse">
<stop stop-color="white" stop-opacity="0"/>
<stop offset="0.66" stop-color="#B55E83" stop-opacity="0.22"/>
<stop offset="1" stop-color="#8B023C" stop-opacity="0.35"/>
</linearGradient>
</defs>
</svg>
