<?xml version="1.0" standalone="no"?>
<!DOCTYPE svg PUBLIC "-//W3C//DTD SVG 20010904//EN"
 "http://www.w3.org/TR/2001/REC-SVG-20010904/DTD/svg10.dtd">
<svg version="1.0" xmlns="http://www.w3.org/2000/svg"
 width="1072.000000pt" height="1072.000000pt" viewBox="0 0 1072.000000 1072.000000"
 preserveAspectRatio="xMidYMid meet">
<metadata>
Created by potrace 1.14, written by Peter Selinger 2001-2017
</metadata>
<g transform="translate(0.000000,1072.000000) scale(0.100000,-0.100000)"
fill="#000000" stroke="none">
<path d="M2405 9029 c-22 -4 -56 -9 -75 -12 -69 -10 -246 -59 -315 -88 -16 -7
-32 -13 -35 -13 -19 -4 -233 -122 -249 -137 -11 -11 -23 -19 -26 -19 -13 0
-154 -118 -221 -186 -39 -39 -91 -98 -115 -130 -24 -32 -47 -61 -50 -64 -14
-11 -119 -194 -119 -207 0 -7 -4 -13 -10 -13 -5 0 -10 -6 -10 -13 0 -7 -16
-50 -35 -95 -19 -45 -35 -84 -35 -87 0 -3 0 -6 -1 -7 0 -2 -2 -10 -4 -18 -2
-8 -11 -41 -20 -74 -15 -54 -19 -72 -31 -151 -13 -91 -15 -226 -17 -1150 -1
-646 -6 -1016 -12 -1025 -6 -9 -39 -38 -75 -65 -36 -28 -71 -55 -78 -62 -7 -7
-34 -29 -60 -50 -26 -21 -53 -44 -60 -51 -8 -7 -30 -25 -50 -40 -21 -15 -39
-29 -42 -32 -3 -3 -45 -39 -95 -79 -49 -40 -99 -80 -110 -89 -11 -9 -42 -35
-70 -56 -59 -47 -68 -55 -165 -137 -41 -35 -83 -73 -93 -84 -25 -29 -81 -114
-83 -128 -2 -7 -12 -40 -23 -75 -34 -111 -22 -255 31 -362 136 -275 466 -375
728 -223 25 15 88 61 140 103 52 42 100 79 105 82 7 4 11 -73 12 -230 2 -282
7 -345 38 -510 18 -92 73 -290 85 -307 4 -5 13 -28 20 -50 17 -52 106 -239
139 -290 14 -22 24 -43 23 -47 -1 -5 2 -8 7 -8 5 0 12 -8 15 -18 4 -10 14 -27
24 -38 9 -10 25 -31 35 -46 39 -61 155 -197 231 -272 297 -289 659 -480 1051
-556 28 -6 61 -12 75 -15 14 -3 52 -8 85 -11 33 -3 76 -7 95 -10 48 -6 2133
-5 2195 2 83 8 130 15 220 30 56 9 64 11 68 13 1 2 13 4 27 7 14 2 50 12 80
21 30 9 62 18 70 19 22 4 89 29 96 37 4 4 14 7 21 7 27 0 285 126 291 141 2 5
9 9 17 9 13 0 194 123 249 170 220 184 427 433 512 612 10 21 21 38 26 38 4 0
8 9 8 19 0 11 7 26 15 35 8 8 15 19 15 25 0 6 13 39 29 73 16 35 38 90 49 123
29 90 61 197 66 225 3 14 7 36 10 50 3 13 8 40 11 60 3 20 7 47 10 60 11 55
19 182 19 295 0 112 -11 281 -18 294 -2 3 -7 29 -10 56 -4 28 -11 66 -16 85
-5 19 -11 46 -14 60 -2 14 -5 25 -6 25 -1 0 -3 7 -5 15 -21 107 -164 456 -194
475 -6 3 -9 10 -6 15 3 4 162 8 354 8 l350 1 1 -572 c0 -315 3 -592 5 -617 18
-192 31 -267 66 -390 7 -25 14 -52 15 -61 7 -36 94 -249 134 -329 60 -121 147
-254 242 -375 63 -79 205 -221 295 -296 35 -28 135 -104 152 -114 9 -5 46 -28
81 -51 119 -75 341 -176 465 -211 128 -37 160 -44 290 -68 113 -21 437 -28
565 -12 97 12 111 14 165 26 28 6 60 13 73 15 13 3 32 8 42 11 10 3 27 7 37 9
91 19 249 93 313 148 31 27 97 115 115 153 52 113 66 259 36 365 -16 56 -62
147 -91 180 -12 14 -25 30 -28 35 -26 40 -143 114 -227 144 -27 9 -123 26
-135 24 -3 -1 -36 -4 -75 -7 -38 -3 -98 -14 -131 -26 -34 -11 -73 -22 -85 -24
-13 -3 -24 -5 -24 -6 0 -3 -40 -9 -100 -17 -96 -11 -240 -6 -325 12 -14 3 -34
7 -45 9 -78 17 -285 106 -293 127 -2 5 -8 9 -13 9 -27 0 -210 161 -264 232
-83 110 -170 289 -191 393 -2 11 -9 47 -16 80 -11 56 -21 1161 -10 1192 2 8
148 11 565 11 611 0 628 2 739 58 142 72 244 215 273 383 3 19 8 38 11 42 2 4
0 10 -5 14 -6 3 -7 15 -1 29 5 15 5 27 -3 35 -8 8 -8 11 1 11 9 0 10 5 4 18
-5 9 -15 40 -21 67 -41 168 -191 316 -371 366 -33 9 -192 13 -620 13 l-575 1
0 555 c-1 306 -5 561 -9 568 -4 7 -9 21 -11 33 -10 52 -72 155 -129 214 -98
103 -229 157 -371 156 -82 -1 -82 -1 -160 -26 -193 -60 -336 -239 -351 -440
-3 -38 -6 -293 -7 -565 l-2 -495 -1282 0 c-706 0 -1283 -4 -1283 -8 0 -5 -5
-5 -12 -1 -16 10 -125 5 -218 -11 -14 -2 -43 -7 -65 -10 -22 -4 -58 -11 -80
-16 -22 -6 -49 -12 -60 -14 -22 -4 -118 -33 -205 -62 -30 -10 -56 -21 -58 -25
-2 -5 -10 -8 -17 -8 -19 0 -88 -32 -97 -45 -4 -5 -8 -6 -8 -2 0 18 -330 -177
-330 -195 0 -4 -5 -8 -10 -8 -10 0 -21 -8 -59 -40 -9 -8 -37 -32 -63 -52 -71
-58 -177 -166 -249 -253 -86 -105 -152 -195 -142 -195 4 0 3 -4 -2 -8 -37 -26
-178 -310 -220 -442 -14 -47 -29 -92 -31 -100 -3 -8 -5 -16 -5 -17 0 -2 -6
-21 -14 -43 -8 -22 -12 -40 -10 -40 2 0 -1 -15 -6 -32 -6 -18 -12 -49 -15 -68
-2 -19 -9 -63 -15 -98 -8 -53 -23 -275 -20 -307 0 -5 3 -49 5 -98 3 -48 7
-103 10 -122 3 -19 9 -52 12 -72 6 -40 12 -75 19 -108 3 -11 7 -29 9 -40 14
-72 75 -259 108 -335 40 -92 82 -176 100 -201 23 -34 17 -36 -97 -32 -96 3
-252 29 -272 46 -7 5 -13 7 -13 3 0 -8 -92 29 -165 66 -51 26 -115 67 -173
112 -29 22 -172 167 -172 174 0 4 -10 19 -22 33 -73 82 -161 296 -184 449 -4
25 -8 338 -9 695 l-1 650 38 38 c20 20 42 37 48 37 5 0 10 4 10 8 0 5 21 23
46 41 25 18 55 43 67 55 12 11 40 34 62 50 22 17 42 33 45 36 5 5 125 103 145
118 6 4 26 21 45 37 20 17 53 44 74 60 21 17 44 35 50 40 6 6 36 30 66 55 30
25 60 49 67 55 6 5 27 22 45 36 18 15 89 72 158 128 109 89 143 117 203 166 6
6 73 59 147 119 74 60 143 118 153 128 10 10 22 18 27 18 21 0 229 222 290
308 73 104 159 258 160 285 0 9 4 17 8 17 5 0 9 6 10 13 0 6 16 56 35 110 20
53 34 97 32 97 -1 0 4 26 12 58 22 90 27 156 28 322 0 146 -9 283 -21 302 -3
4 -7 18 -9 30 -10 50 -28 124 -34 133 -3 6 -6 15 -7 21 -4 27 -78 199 -109
255 -19 33 -35 65 -35 70 0 5 -4 9 -8 9 -5 0 -14 11 -20 25 -7 14 -16 31 -22
38 -5 7 -29 37 -52 67 -53 69 -100 121 -162 179 -27 25 -57 53 -66 62 -10 9
-59 46 -109 83 -137 97 -361 202 -511 237 -59 14 -123 27 -170 34 -61 10 -356
13 -405 4z m279 -1053 c22 -4 45 -11 53 -17 7 -6 13 -8 13 -5 0 4 10 1 23 -6
12 -7 24 -13 27 -13 18 -4 80 -47 122 -85 44 -39 125 -148 129 -172 2 -13 5
-22 18 -53 11 -27 24 -104 24 -150 1 -52 -14 -149 -24 -161 -6 -8 -8 -14 -4
-14 4 0 2 -7 -5 -15 -7 -8 -10 -15 -7 -15 4 0 -10 -27 -29 -60 -31 -53 -69
-97 -124 -143 -16 -14 -113 -92 -143 -117 -11 -8 -24 -20 -31 -25 -6 -6 -58
-49 -116 -95 -58 -47 -107 -87 -110 -90 -4 -5 -48 -40 -123 -100 -11 -8 -24
-19 -31 -25 -6 -5 -34 -28 -61 -49 -28 -22 -54 -44 -60 -50 -13 -14 -142 -116
-147 -116 -2 0 -3 262 -2 583 0 502 3 589 16 633 62 200 210 335 393 361 22 3
41 7 43 8 5 4 107 -2 156 -9z m2481 -3101 c80 -16 164 -40 205 -57 93 -40 117
-53 196 -104 188 -124 330 -307 406 -523 22 -63 23 -68 42 -165 15 -76 18
-304 4 -312 -4 -3 -6 -9 -4 -13 3 -4 0 -27 -5 -52 -6 -24 -13 -55 -15 -68 -8
-41 -63 -173 -97 -234 -79 -141 -199 -271 -332 -358 -59 -39 -193 -107 -224
-115 -9 -2 -41 -10 -71 -19 -72 -21 -94 -25 -145 -29 -24 -2 -47 -5 -51 -8
-21 -9 -215 3 -285 18 -13 3 -34 7 -46 10 -92 19 -311 121 -353 164 -3 3 -23
19 -45 35 -54 40 -175 166 -175 182 0 7 -4 13 -8 13 -20 0 -135 218 -157 300
-20 71 -35 144 -40 189 -3 29 -7 57 -10 61 -3 5 -1 11 4 15 6 3 7 15 2 28 -5
12 -7 29 -6 37 1 8 5 49 9 90 9 100 41 219 82 307 19 39 34 74 34 77 0 5 35
60 68 105 61 86 147 175 217 226 22 16 42 31 45 34 18 21 216 118 253 125 12
2 35 9 52 16 16 6 48 14 70 17 22 3 56 8 75 12 39 9 259 6 305 -4z"/>
</g>
</svg>
