<?xml version="1.0" encoding="utf-8"?>
<!-- Generator: Adobe Illustrator 27.2.0, SVG Export Plug-In . SVG Version: 6.00 Build 0)  -->
<svg version="1.1" id="munt" xmlns="http://www.w3.org/2000/svg" xmlns:xlink="http://www.w3.org/1999/xlink" x="0px" y="0px"
	 viewBox="0 0 180 120" style="enable-background:new 0 0 180 120;" xml:space="preserve">
<style type="text/css">
	.st0{fill:#00D796;}
</style>
<g id="layer1">
	<g id="g36" transform="matrix(0.10335286,0,0,0.10335286,0,5.5562499)">
		<path id="path16" d="M654,367.7h89c13.2,46.5,26.4,92.2,39.4,138.2h1.4c12.9-45.8,25.7-91.7,38.7-137.8h90v27.8h-22.6v134.9h22.8
			v27.9h-85v-27.6h20.7V402.9c-0.2,0-0.7-0.2-0.9-0.2c-15.3,52.1-30.7,104.1-45.9,156.2h-42.5c-15.3-52.1-30.7-104.1-45.9-156.2
			h-0.9v127.5h20.2V559h-79v-28.3h22.8V395.7h-22.8C654,386.6,654,377.1,654,367.7L654,367.7z M1551.1,433.7h-33.9v-36.9h-31.9
			v134.1h26.1V559h-95.1v-27.8h25.9V397h-30.9v36.7h-34.5v-65.7h174.2C1551.1,389.8,1551.1,411.6,1551.1,433.7z M1499.4,686.7v-65.5
			h14.1c8.6,15.8,17.5,31.7,26.4,47.8c0.7-0.2,1-0.2,1.7-0.3v-47.8h9.9v66h-12.7c-8.9-16.3-18-32.6-26.9-49c-0.3,0.2-1,0.3-1.4,0.7
			v48.3C1506.7,686.7,1502.9,686.7,1499.4,686.7L1499.4,686.7z M954.2,686.7c-17.8-10.6-24-25.5-18.9-44.9
			c3.9-14.6,16.8-23.5,31.9-22.6c15.4,0.9,26.9,10.8,29.7,25.5c3.4,19.2-1.7,30.9-19,42L954.2,686.7L954.2,686.7z M944.6,656.2
			c0.9,2.6,1.7,7.9,4.1,12.2c6.9,12.9,25.5,13.7,33.3,1.9c6.2-9.3,6.5-19.2,2.2-29.1c-4.6-11-16.1-15.8-26.6-10.8
			C947.7,635,945.3,643.7,944.6,656.2L944.6,656.2z M1130.1,686.7v-65.5h10.5v25.9h30v-26.4h9.8v66h-9.4v-29.1h-29.8v29.1
			L1130.1,686.7L1130.1,686.7z M654,620.7h9.8v26.6h30.7v-26.4h9.8v65.7h-9.4v-29.2h-31.4v29.2H654L654,620.7L654,620.7z
			 M1318.5,686.7v-65.5h9.3v26.4c9.6-9.9,18.2-18.9,25.7-26.6h14.6c-10.5,10.6-19.7,20.4-29.8,30.9c2.1,2.4,4.1,4.6,6.2,6.7
			c8.6,9.4,17.3,18.9,25.9,28.1h-14.1c-8.9-9.8-17.8-19.4-26.7-29.1c-0.7,0.2-1,0.3-1.7,0.7v28.6
			C1324.8,686.7,1321.7,686.7,1318.5,686.7L1318.5,686.7z M850.3,686.7v-65.7c10.6-0.3,20.6-1.7,30.7,1.4c7.5,2.4,11.7,8.6,12,16.5
			c0.3,9.4-2.9,16.3-10.8,19c-6.3,2.1-13,2.4-20.7,3.9v24.9L850.3,686.7L850.3,686.7z M861.8,630.3v21.1c7.2,0.7,14.2,1.4,18.3-5.3
			c1.7-2.4,1.9-7.5,0.2-9.9C876.7,628.8,869.5,629.7,861.8,630.3L861.8,630.3z M1232.1,686.7v-65.7h36.7c0.2,2.2,0.2,4.6,0.7,8.4
			h-27.1v18.2h23.8v9.3h-23.8v20.2h26.4c0.3,3.6,0.9,6.7,1.2,9.8C1257.3,686.7,1244.8,686.7,1232.1,686.7L1232.1,686.7z
			 M1414.5,686.7v-65.5h36.5v8.7h-26.1v17.5h23.5v9.3h-23.5v20.4h25.9c0.3,3.4,0.9,6.5,1.2,9.6L1414.5,686.7L1414.5,686.7z
			 M773.3,686.7c0-2.1-0.3-4.3-0.2-6.3c2.4-15.4-3.1-28.3-12.7-40.3c-4.6-5.5-8.2-12-12.9-19h12c2.6,3.9,5.7,8.4,8.7,12.9
			c3.1,4.5,6.2,8.9,9.8,14.7c6.5-9.8,12.7-19,18.5-27.9h11.8c-4.1,6.2-7.2,11.8-11.1,16.8c-10.6,13-17.3,27.1-14.2,44.6
			c0.2,1.4-0.2,3.1-0.3,4.6H773.3L773.3,686.7z M1056.2,686.7v-56.6c-6.3-0.2-12.5-0.7-19-0.9v-8.6h49.7v8.7h-20.1v57.1
			C1063.6,686.7,1060,686.7,1056.2,686.7L1056.2,686.7z M1226.9,368.4c23.8,45.8,47.5,91.7,71.5,137.3c0.3-0.2,0.9-0.2,1-0.3V396.5
			h-22.8v-28.3h84.3v27.6h-23.1v162.9h-54.7c-25-47.5-50.4-95.5-75.8-143.7c-0.3,0-0.7,0.2-1,0.2v115.4h22.6v28.3h-83.8v-27.9h23.1
			V396.3h-23.1v-28H1226.9L1226.9,368.4z M1109.7,396v9.8c0,27.1-0.3,54.5,0,81.6c0.9,47.8-35,73.5-70.3,75.3
			c-12.5,0.7-25.4,0.2-37.4-2.2c-34.5-7.2-54.3-32.4-54.5-67.7c-0.2-29,0-58.1,0-87.1v-9.3h-19.7v-27.8h86.9v27.6h-25.4
			c-0.2,3.4-0.3,6.2-0.3,8.6c0,27.6-0.3,54.9,0.2,82.5c0.2,8.7,1.7,17.8,4.6,26.1c6.2,16.5,20.6,23.1,43.5,21.3
			c17.1-1.4,28.8-11,32.4-26.9c1-4.5,1.9-9.4,1.9-13.9c0.2-30.7,0-61.2,0-91.9c0-1.4-0.2-3.1-0.3-5.1h-25v-28.1h83.1v27.6
			C1123.2,396,1117.1,396,1109.7,396L1109.7,396z"/>
	</g>
</g>
<path class="st0" d="M29,65.7V38.6l-9.3,16.3v19.9L29,65.7z"/>
<path class="st0" d="M30.2,65.8v-28l30.4,14.4v22.6L30.2,65.8z"/>
<path class="st0" d="M29.9,66.6l-9.3,9l23.3,5.4l15.8-5.4L29.9,66.6z"/>
</svg>
