<?xml version="1.0" encoding="utf-8"?>
<!-- Generator: Adobe Illustrator 27.2.0, SVG Export Plug-In . SVG Version: 6.00 Build 0)  -->
<svg version="1.1" id="Layer_1" xmlns="http://www.w3.org/2000/svg" xmlns:xlink="http://www.w3.org/1999/xlink" x="0px" y="0px"
	 viewBox="0 0 135.2 135.2" style="enable-background:new 0 0 135.2 135.2;" xml:space="preserve">
<style type="text/css">
	.st0{fill:#00A5D6;}
	.st1{fill:#E20000;}
	.st2{fill:#1A1A1A;}
</style>
<path class="st0" d="M31.6,78.9v13.9c0,5.9,4.5,10.6,10.2,10.6h86.3v-37c0-5.9-4.5-10.6-10.2-10.6h-14.2v12.5
	c0,5.9-4.7,10.6-10.6,10.6H31.6z"/>
<path class="st1" d="M17.7,78.9h13.9V66.3c0-5.9,4.7-10.6,10.6-10.6h61.5V41.8c0-5.9-4.7-10.6-10.6-10.6H7.1v37
	C7.1,74.2,11.9,78.9,17.7,78.9z"/>
<path class="st2" d="M31.6,78.9H93c5.9,0,10.6-4.7,10.6-10.6V55.8H42.2c-5.9,0-10.6,4.7-10.6,10.6V78.9z"/>
</svg>
