<svg width="40" height="40" viewBox="0 0 40 40" fill="none" xmlns="http://www.w3.org/2000/svg">
<path d="M19.8708 17.5847H19.0699V20.4873L16.5614 17.8093C16.4258 17.6653 16.2394 17.5847 16.0445 17.5847H14.7648V21.7161C14.7648 22.1102 15.0826 22.428 15.4767 22.428H16.2818V19.4703L18.8708 22.2034C19.0064 22.3432 19.1928 22.4237 19.3877 22.4237H20.5869V18.2924C20.5826 17.9025 20.2606 17.5847 19.8708 17.5847ZM22.2013 17.5847H21.3581V21.7161C21.3581 22.1102 21.6758 22.428 22.0699 22.428H22.9131V18.2924C22.9131 17.9025 22.5953 17.5847 22.2013 17.5847ZM28.7606 20.0042C29.036 19.8178 29.2436 19.5212 29.2436 19.0593V18.9958C29.2436 18.2669 28.803 17.5847 27.2309 17.5847H23.6886V21.7161C23.6886 22.1102 24.0064 22.428 24.4004 22.428H27.2309C28.7987 22.428 29.2436 21.7458 29.2436 21.0169V20.9534C29.2436 20.4873 29.036 20.1907 28.7606 20.0042ZM27.5657 20.8644C27.5657 21.072 27.4597 21.3008 26.9936 21.3008H25.2479V20.4407H26.9936C27.464 20.4407 27.5657 20.6229 27.5657 20.839V20.8644ZM27.5657 19.1737C27.5657 19.3898 27.4597 19.572 26.9936 19.572H25.2479V18.7076H26.9936C27.464 18.7076 27.5657 18.9364 27.5657 19.1441V19.1737ZM32.7055 21.2669C31.5614 21.2669 31.2521 20.5466 31.2521 20.0169V19.9322C31.2521 19.3729 31.553 18.7161 32.697 18.7161C33.7394 18.7161 34.0064 19.1737 34.0784 19.3941H35.7013C35.6716 18.5339 35.0784 17.5 32.8453 17.5H32.5445C30.1758 17.5 29.6292 18.9068 29.6292 19.8898V20.0847C29.6292 21.0551 30.1843 22.5 32.5445 22.5H32.8453C35.125 22.5 35.6886 21.3644 35.7013 20.5466H34.0869C34.036 20.75 33.803 21.2669 32.7055 21.2669Z" fill="#1A1A1A"/>
<path d="M5.94281 20.7839V21.7161C5.94281 22.1102 6.24789 22.428 6.62925 22.428H12.4301V19.9407C12.4301 19.5466 12.125 19.2288 11.7437 19.2288H10.786V20.072C10.786 20.4661 10.4682 20.7839 10.0742 20.7839H5.94281Z" fill="#00A5D6"/>
<path d="M5.01063 20.7839H5.94284V19.9365C5.94284 19.5424 6.26063 19.2246 6.6547 19.2246H10.7861V18.2924C10.7861 17.8983 10.4683 17.5805 10.0742 17.5805H4.29877V20.0678C4.29877 20.4661 4.61656 20.7839 5.01063 20.7839Z" fill="#E20000"/>
<path d="M5.94281 20.7839H10.0742C10.4682 20.7839 10.786 20.4661 10.786 20.072V19.2288H6.65467C6.26061 19.2288 5.94281 19.5466 5.94281 19.9407V20.7839Z" fill="#1A1A1A"/>
</svg>
